<mxfile host="app.diagrams.net" modified="2023-02-13T14:55:42.280Z" agent="5.0 (X11)" etag="FxAjL-fyIQwETkX6T0Wp" version="20.8.20" type="github">
  <diagram name="Page-1" id="TdOHpansvnOGCtft_5oy">
    <mxGraphModel dx="937" dy="516" grid="1" gridSize="10" guides="1" tooltips="1" connect="1" arrows="1" fold="1" page="1" pageScale="1" pageWidth="827" pageHeight="1169" math="0" shadow="0">
      <root>
        <mxCell id="0" />
        <mxCell id="1" parent="0" />
        <mxCell id="nNItx1n0lOZReaFIjNtG-3" value="" style="rounded=0;whiteSpace=wrap;html=1;" vertex="1" parent="1">
          <mxGeometry x="40" y="40" width="160" height="440" as="geometry" />
        </mxCell>
        <mxCell id="nNItx1n0lOZReaFIjNtG-1" value="" style="strokeColor=#dddddd;shadow=1;strokeWidth=1;rounded=1;absoluteArcSize=1;arcSize=2;" vertex="1" parent="1">
          <mxGeometry x="60" y="80" width="120" height="44" as="geometry" />
        </mxCell>
        <mxCell id="nNItx1n0lOZReaFIjNtG-2" value="Squid Proxy" style="sketch=0;dashed=0;connectable=0;html=1;fillColor=#757575;strokeColor=none;shape=mxgraph.gcp2.squid_proxy;part=1;labelPosition=right;verticalLabelPosition=middle;align=left;verticalAlign=middle;spacingLeft=5;fontSize=12;" vertex="1" parent="nNItx1n0lOZReaFIjNtG-1">
          <mxGeometry y="0.5" width="32" height="32" relative="1" as="geometry">
            <mxPoint x="5" y="-16" as="offset" />
          </mxGeometry>
        </mxCell>
        <mxCell id="nNItx1n0lOZReaFIjNtG-6" value="" style="rounded=0;whiteSpace=wrap;html=1;" vertex="1" parent="1">
          <mxGeometry x="280" y="40" width="200" height="160" as="geometry" />
        </mxCell>
        <mxCell id="nNItx1n0lOZReaFIjNtG-7" value="MySQL DB &#xa;instance" style="sketch=0;outlineConnect=0;fontColor=#232F3E;gradientColor=none;strokeColor=#232F3E;fillColor=#ffffff;dashed=0;verticalLabelPosition=bottom;verticalAlign=top;align=center;html=1;fontSize=12;fontStyle=0;aspect=fixed;shape=mxgraph.aws4.resourceIcon;resIcon=mxgraph.aws4.mysql_db_instance;" vertex="1" parent="1">
          <mxGeometry x="385" y="80" width="60" height="60" as="geometry" />
        </mxCell>
        <mxCell id="nNItx1n0lOZReaFIjNtG-8" value="MySQL DB &#xa;instance" style="sketch=0;outlineConnect=0;fontColor=#232F3E;gradientColor=none;strokeColor=#232F3E;fillColor=#ffffff;dashed=0;verticalLabelPosition=bottom;verticalAlign=top;align=center;html=1;fontSize=12;fontStyle=0;aspect=fixed;shape=mxgraph.aws4.resourceIcon;resIcon=mxgraph.aws4.mysql_db_instance;" vertex="1" parent="1">
          <mxGeometry x="395" y="90" width="60" height="60" as="geometry" />
        </mxCell>
        <mxCell id="nNItx1n0lOZReaFIjNtG-9" value="MySQL DB &#xa;instance" style="sketch=0;outlineConnect=0;fontColor=#232F3E;gradientColor=none;strokeColor=#232F3E;fillColor=#ffffff;dashed=0;verticalLabelPosition=bottom;verticalAlign=top;align=center;html=1;fontSize=12;fontStyle=0;aspect=fixed;shape=mxgraph.aws4.resourceIcon;resIcon=mxgraph.aws4.mysql_db_instance;" vertex="1" parent="1">
          <mxGeometry x="405" y="102" width="60" height="60" as="geometry" />
        </mxCell>
        <mxCell id="nNItx1n0lOZReaFIjNtG-10" value="&lt;div align=&quot;left&quot;&gt;MySQL Cluster&lt;/div&gt;&lt;div align=&quot;left&quot;&gt;Galera or normal replication&lt;br&gt;&lt;/div&gt;&lt;div align=&quot;left&quot;&gt;&lt;br&gt;&lt;/div&gt;" style="text;html=1;strokeColor=none;fillColor=none;align=left;verticalAlign=middle;whiteSpace=wrap;rounded=0;" vertex="1" parent="1">
          <mxGeometry x="290" y="50" width="90" height="80" as="geometry" />
        </mxCell>
        <mxCell id="nNItx1n0lOZReaFIjNtG-11" value="" style="rounded=0;whiteSpace=wrap;html=1;" vertex="1" parent="1">
          <mxGeometry x="280" y="240" width="200" height="160" as="geometry" />
        </mxCell>
        <mxCell id="nNItx1n0lOZReaFIjNtG-15" value="Docker Swarm" style="text;html=1;strokeColor=none;fillColor=none;align=left;verticalAlign=middle;whiteSpace=wrap;rounded=0;" vertex="1" parent="1">
          <mxGeometry x="290" y="250" width="90" height="30" as="geometry" />
        </mxCell>
        <mxCell id="nNItx1n0lOZReaFIjNtG-16" value="" style="sketch=0;aspect=fixed;html=1;points=[];align=center;image;fontSize=12;image=img/lib/mscae/Docker.svg;" vertex="1" parent="1">
          <mxGeometry x="290" y="280" width="50" height="41" as="geometry" />
        </mxCell>
        <mxCell id="nNItx1n0lOZReaFIjNtG-20" value="" style="shape=image;html=1;verticalAlign=top;verticalLabelPosition=bottom;labelBackgroundColor=#ffffff;imageAspect=0;aspect=fixed;image=https://cdn0.iconfinder.com/data/icons/social-media-2104/24/social_media_social_media_logo_docker-128.png" vertex="1" parent="1">
          <mxGeometry x="395" y="260" width="50" height="50" as="geometry" />
        </mxCell>
        <mxCell id="nNItx1n0lOZReaFIjNtG-21" value="" style="shape=image;html=1;verticalAlign=top;verticalLabelPosition=bottom;labelBackgroundColor=#ffffff;imageAspect=0;aspect=fixed;image=https://cdn0.iconfinder.com/data/icons/social-media-2104/24/social_media_social_media_logo_docker-128.png" vertex="1" parent="1">
          <mxGeometry x="405" y="270" width="50" height="50" as="geometry" />
        </mxCell>
        <mxCell id="nNItx1n0lOZReaFIjNtG-22" value="" style="shape=image;html=1;verticalAlign=top;verticalLabelPosition=bottom;labelBackgroundColor=#ffffff;imageAspect=0;aspect=fixed;image=https://cdn0.iconfinder.com/data/icons/social-media-2104/24/social_media_social_media_logo_docker-128.png" vertex="1" parent="1">
          <mxGeometry x="415" y="280" width="50" height="50" as="geometry" />
        </mxCell>
        <mxCell id="nNItx1n0lOZReaFIjNtG-23" value="" style="shape=image;html=1;verticalAlign=top;verticalLabelPosition=bottom;labelBackgroundColor=#ffffff;imageAspect=0;aspect=fixed;image=https://cdn1.iconfinder.com/data/icons/social-media-2106/24/social_media_social_media_logo_docker-128.png" vertex="1" parent="1">
          <mxGeometry x="300" y="350" width="40" height="40" as="geometry" />
        </mxCell>
        <mxCell id="nNItx1n0lOZReaFIjNtG-24" value="" style="shape=image;html=1;verticalAlign=top;verticalLabelPosition=bottom;labelBackgroundColor=#ffffff;imageAspect=0;aspect=fixed;image=https://cdn1.iconfinder.com/data/icons/social-media-2106/24/social_media_social_media_logo_docker-128.png" vertex="1" parent="1">
          <mxGeometry x="365" y="350" width="40" height="40" as="geometry" />
        </mxCell>
        <mxCell id="nNItx1n0lOZReaFIjNtG-25" value="" style="shape=image;html=1;verticalAlign=top;verticalLabelPosition=bottom;labelBackgroundColor=#ffffff;imageAspect=0;aspect=fixed;image=https://cdn1.iconfinder.com/data/icons/social-media-2106/24/social_media_social_media_logo_docker-128.png" vertex="1" parent="1">
          <mxGeometry x="425" y="350" width="40" height="40" as="geometry" />
        </mxCell>
        <mxCell id="nNItx1n0lOZReaFIjNtG-26" value="Statefull!" style="text;html=1;strokeColor=none;fillColor=none;align=center;verticalAlign=middle;whiteSpace=wrap;rounded=0;fontSize=9;" vertex="1" parent="1">
          <mxGeometry x="290" y="170" width="50" height="20" as="geometry" />
        </mxCell>
        <mxCell id="nNItx1n0lOZReaFIjNtG-27" value="Stateless!" style="text;html=1;strokeColor=none;fillColor=none;align=center;verticalAlign=middle;whiteSpace=wrap;rounded=0;fontSize=9;" vertex="1" parent="1">
          <mxGeometry x="430" y="250" width="45" height="20" as="geometry" />
        </mxCell>
        <mxCell id="nNItx1n0lOZReaFIjNtG-28" value="OpenSearch" style="sketch=0;outlineConnect=0;fontColor=#232F3E;gradientColor=none;strokeColor=#ffffff;fillColor=#232F3E;dashed=0;verticalLabelPosition=middle;verticalAlign=bottom;align=center;html=1;whiteSpace=wrap;fontSize=10;fontStyle=1;spacing=3;shape=mxgraph.aws4.productIcon;prIcon=mxgraph.aws4.elasticsearch_service;" vertex="1" parent="1">
          <mxGeometry x="60" y="226" width="80" height="100" as="geometry" />
        </mxCell>
        <mxCell id="nNItx1n0lOZReaFIjNtG-29" value="Prometheus" style="sketch=0;points=[[0,0,0],[0.25,0,0],[0.5,0,0],[0.75,0,0],[1,0,0],[0,1,0],[0.25,1,0],[0.5,1,0],[0.75,1,0],[1,1,0],[0,0.25,0],[0,0.5,0],[0,0.75,0],[1,0.25,0],[1,0.5,0],[1,0.75,0]];points=[[0,0,0],[0.25,0,0],[0.5,0,0],[0.75,0,0],[1,0,0],[0,1,0],[0.25,1,0],[0.5,1,0],[0.75,1,0],[1,1,0],[0,0.25,0],[0,0.5,0],[0,0.75,0],[1,0.25,0],[1,0.5,0],[1,0.75,0]];outlineConnect=0;fontColor=#232F3E;gradientColor=#F34482;gradientDirection=north;fillColor=#BC1356;strokeColor=#ffffff;dashed=0;verticalLabelPosition=bottom;verticalAlign=top;align=center;html=1;fontSize=10;fontStyle=1;aspect=fixed;shape=mxgraph.aws4.resourceIcon;resIcon=mxgraph.aws4.managed_service_for_prometheus;" vertex="1" parent="1">
          <mxGeometry x="62" y="336" width="78" height="78" as="geometry" />
        </mxCell>
        <mxCell id="nNItx1n0lOZReaFIjNtG-30" value="" style="aspect=fixed;html=1;points=[];align=center;image;fontSize=12;image=img/lib/azure2/networking/DNS_Zones.svg;" vertex="1" parent="1">
          <mxGeometry x="60" y="140" width="64" height="64" as="geometry" />
        </mxCell>
      </root>
    </mxGraphModel>
  </diagram>
</mxfile>
